<svg version="1.1" xmlns="http://www.w3.org/2000/svg" viewBox="0 0 381.57337439497934 331.62198377370834" width="381.57337439497934" height="331.62198377370834" class="excalidraw-svg">
  <!-- svg-source:excalidraw -->
  
  <defs>
    <style class="style-fonts">
      @font-face {
        font-family: "Virgil";
        src: url("https://excalidraw.com/Virgil.woff2");
      }
      @font-face {
        font-family: "Cascadia";
        src: url("https://excalidraw.com/Cascadia.woff2");
      }
      @font-face {
        font-family: "Assistant";
        src: url("https://excalidraw.com/Assistant-Regular.woff2");
      }
    </style>
    
  </defs>
  <rect x="0" y="0" width="381.57337439497934" height="331.62198377370834" fill="#ffffff"></rect><g stroke-linecap="round"><g transform="translate(57.22931942669675 11.664078554809095) rotate(0 0.8855438232421875 133.83869171142578)"><path d="M0.9 -0.41 C1.11 44.42, 1.74 224.3, 1.92 268.8 M-0.08 -1.66 C-0.08 42.87, 0.81 222.43, 1.06 267.26" stroke="#1e1e1e" stroke-width="2" fill="none"></path></g></g><mask></mask><g stroke-linecap="round"><g transform="translate(14.352335784118623 321.72818072766063) rotate(0 178.71556091308594 -0.416046142578125)"><path d="M1.14 -0.39 C60.48 -0.61, 297.99 -1.49, 357.22 -1.76 M0.28 -1.64 C59.35 -1.71, 296.39 -0.76, 356.16 -0.71" stroke="#1e1e1e" stroke-width="2" fill="none"></path></g></g><mask></mask><g stroke-linecap="round"><g transform="translate(58.8874615165405 282.95791705578563) rotate(0 -16.155014038085938 19.218719482421875)"><path d="M1.02 -0.92 C-4.34 5.54, -27.38 31.04, -32.88 37.58 M0.09 1.22 C-5.42 7.9, -28.69 32.28, -34.12 38.66" stroke="#1e1e1e" stroke-width="2" fill="none"></path></g></g><mask></mask><g stroke-linecap="round"><g transform="translate(59.55906185833737 283.8136909815669) rotate(0 0.710205078125 18.33319091796875)"><path d="M-0.21 -0.41 C-0.13 5.73, 0.55 30.36, 0.87 36.48 M0.68 0.57 C0.88 6.81, 1.69 31.05, 1.82 37.09" stroke="#1e1e1e" stroke-width="2" fill="none"></path></g></g><mask></mask><g stroke-linecap="round"><g transform="translate(64.60776791302487 284.07815631359813) rotate(0 15.85638427734375 17.789398193359375)"><path d="M1.15 0.81 C6.73 6.65, 27.68 29.31, 32.58 35.19 M0.3 0.19 C5.87 6.18, 26.66 30.89, 32.08 36.52" stroke="#1e1e1e" stroke-width="2" fill="none"></path></g></g><mask></mask><g stroke-linecap="round"><g transform="translate(9.799876067321748 49.52801593273878) rotate(0 148.80062866210938 -0.9033660888671875)"><path d="M1.09 -0.77 C50.72 -1.34, 248.65 -2.06, 298.03 -2.37 M0.2 1.44 C49.69 1.54, 247.92 -0.6, 297.31 -1.13" stroke="#1e1e1e" stroke-width="2" fill="none"></path></g></g><mask></mask><g stroke-linecap="round"><g transform="translate(105.00944027630612 51.22775348156691) rotate(0 -22.79205322265625 22.22894287109375)"><path d="M-0.8 -0.37 C-8.33 7.09, -37.33 36.74, -44.83 44.41 M0.98 -1.61 C-6.67 6.07, -37.44 38.34, -45.39 45.92" stroke="#1e1e1e" stroke-width="2" fill="none"></path></g></g><mask></mask></svg>